<svg width="12" height="21" viewBox="0 0 12 21" fill="none" xmlns="http://www.w3.org/2000/svg">
<path d="M0.427353 0.427177C0.291938 0.561485 0.184457 0.721275 0.111108 0.897333C0.0377599 1.07339 -3.81497e-06 1.26223 -3.77663e-06 1.45295C-3.73829e-06 1.64368 0.0377601 1.83252 0.111109 2.00857C0.184457 2.18463 0.291939 2.34442 0.427354 2.47873L8.08457 10.1215L0.427357 17.7643C0.155303 18.0363 0.00246594 18.4053 0.00246602 18.7901C0.0024661 19.1748 0.155304 19.5438 0.427357 19.8158C0.69941 20.0879 1.06839 20.2407 1.45314 20.2407C1.83788 20.2407 2.20686 20.0879 2.47891 19.8158L11.1475 11.1473C11.2829 11.013 11.3904 10.8532 11.4637 10.6771C11.5371 10.5011 11.5748 10.3122 11.5748 10.1215C11.5748 9.93078 11.5371 9.74194 11.4637 9.56588C11.3904 9.38982 11.2829 9.23003 11.1475 9.09572L2.47891 0.427177C2.3446 0.291761 2.18481 0.184278 2.00875 0.110929C1.83269 0.0375801 1.64386 -0.000181532 1.45313 -0.000181493C1.26241 -0.000181454 1.07357 0.0375803 0.897511 0.110929C0.721454 0.184278 0.561662 0.291761 0.427353 0.427177Z" fill="white"/>
</svg>
