<svg width="29" height="29" viewBox="0 0 29 29" fill="none" xmlns="http://www.w3.org/2000/svg">
<g clip-path="url(#clip0)">
<path d="M14.5105 29C6.48878 29 0 22.5112 0 14.5105C0 6.50978 6.48878 0 14.5105 0C22.5112 0 29.021 6.48878 29.021 14.5105C29 22.5112 22.5112 29 14.5105 29ZM15.8755 7.89573C15.8755 6.34178 13.5445 6.34178 13.5445 7.89573V13.6915H7.74873C6.19479 13.6915 6.19479 16.0224 7.74873 16.0224H14.6995C15.0565 16.0224 15.3505 15.8965 15.5395 15.6865C15.7285 15.4975 15.8545 15.2245 15.8545 14.8465V7.89573H15.8755Z" fill="url(#paint0_linear)"/>
</g>
<defs>
<linearGradient id="paint0_linear" x1="14.5105" y1="0" x2="45" y2="44.5" gradientUnits="userSpaceOnUse">
<stop stop-color="#EED200"/>
<stop offset="1" stop-color="#C65E05"/>
</linearGradient>
<clipPath id="clip0">
<rect width="29" height="29" fill="white"/>
</clipPath>
</defs>
</svg>
