<svg width="33" height="30" viewBox="0 0 33 30" fill="none" xmlns="http://www.w3.org/2000/svg">
<g clip-path="url(#clip0)">
<path d="M32.3974 26.9559L18.0605 1.03612C17.3093 -0.335119 15.3498 -0.335119 14.5987 1.03612L0.26174 26.9559C-0.489399 28.3271 0.457689 29.9993 1.99263 29.9993H30.6666C32.1688 29.9993 33.1486 28.3271 32.3974 26.9559ZM16.3949 9.69833C16.8521 9.69833 17.2114 9.93244 17.44 10.4341C17.6033 10.802 17.7012 11.2033 17.7012 11.6716C17.7012 11.9726 17.6359 12.8756 17.5053 14.3806L16.9174 20.9358C16.8848 21.3037 16.7215 21.5044 16.3949 21.5044C16.0683 21.5044 15.905 21.3037 15.8724 20.9358L15.1866 14.3806C15.0559 13.0094 14.9906 12.1398 14.9906 11.7385C14.9579 10.4007 15.4152 9.69833 16.3949 9.69833ZM17.3093 25.0161C17.0154 25.2836 16.6562 25.4508 16.2643 25.4508C15.8724 25.4508 15.5458 25.3171 15.2845 25.0161C15.0233 24.7485 14.86 24.4141 14.86 24.0462C14.86 23.6114 14.9906 23.2769 15.2845 23.0094C15.5784 22.7418 15.9377 22.608 16.3296 22.608C16.7215 22.608 17.0481 22.7418 17.3093 23.0094C17.5706 23.2769 17.7012 23.6114 17.7012 24.0127C17.7666 24.3806 17.6033 24.7485 17.3093 25.0161Z" fill="url(#paint0_linear)"/>
</g>
<defs>
<linearGradient id="paint0_linear" x1="-1.49963" y1="2.5" x2="38.0004" y2="44.5" gradientUnits="userSpaceOnUse">
<stop stop-color="#EED200"/>
<stop offset="1" stop-color="#C65E05"/>
</linearGradient>
<clipPath id="clip0">
<rect width="32.6582" height="30" fill="white"/>
</clipPath>
</defs>
</svg>
