<svg width="192" height="24" viewBox="0 0 192 24" fill="none" xmlns="http://www.w3.org/2000/svg">
<path d="M0 20.1673L3.62791 15.8783C5.95349 17.7034 8.55814 18.7072 11.2558 18.7072C13.0233 18.7072 13.9535 18.0684 13.9535 17.1559V17.0646C13.9535 16.0608 13.2093 15.6046 9.95349 14.8745C4.93023 13.7795 1.02326 12.3194 1.02326 7.57414V7.39164C1.11628 3.10266 4.55814 0 10.2326 0C14.2326 0 17.3953 1.09506 20 3.10266L16.7442 7.6654C14.6047 6.20532 12.186 5.38403 10.1395 5.38403C8.55814 5.38403 7.81395 6.02281 7.81395 6.84411V6.93536C7.81395 8.03042 8.65116 8.48669 11.907 9.21673C17.3023 10.403 20.7442 12.1369 20.7442 16.4259C20.7442 21.1711 16.9302 24 11.1628 24C6.88372 24 2.88372 22.7224 0 20.1673Z" fill="#2B2B2B"/>
<path d="M23.8135 0.36499H42.8832V5.84027H30.3251V9.39921H41.6739V14.5095H30.3251V18.1597H43.0693V23.635H23.8135V0.36499Z" fill="#2B2B2B"/>
<path d="M46.3252 0.36499H55.4415C63.9066 0.36499 68.8368 5.20149 68.8368 11.8631V11.9543C68.8368 18.6159 63.9066 23.635 55.3484 23.635H46.3252V0.36499ZM55.6275 17.8859C59.5345 17.8859 62.1391 15.787 62.1391 12.0456V11.9543C62.1391 8.2129 59.5345 6.11404 55.6275 6.11404H52.9298V17.8859H55.6275Z" fill="#2B2B2B"/>
<path d="M78.6979 0.273682H85.0235L95.07 23.6349H88.0002L86.2328 19.5284H77.2095L75.5351 23.6349H68.6514L78.6979 0.273682ZM84.4653 14.4182L81.8607 7.84783L79.163 14.4182H84.4653Z" fill="#2B2B2B"/>
<path d="M97.3958 0.36499H103.907V17.9772H115.349V23.635H97.3027V0.36499H97.3958Z" fill="#2B2B2B"/>
<path d="M118.232 0.36499H125.116L130.791 9.30796L136.465 0.36499H143.349V23.5437H136.837V10.3118L130.791 19.4372H130.698L124.651 10.403V23.635H118.232V0.36499Z" fill="#2B2B2B"/>
<path d="M147.535 0.36499H166.605V5.84027H154.047V9.39921H165.396V14.5095H154.047V18.1597H166.791V23.635H147.628V0.36499H147.535Z" fill="#2B2B2B"/>
<path d="M184.651 0.36499H192L175.721 23.5437H168.372L184.651 0.36499Z" fill="white"/>
<path d="M192 23.635H184.651L168.372 0.36499H175.721L192 23.635Z" fill="#2B2B2B"/>
</svg>
