<svg width="211" height="27" viewBox="0 0 211 27" fill="none" xmlns="http://www.w3.org/2000/svg">
<path d="M0 22.6882L3.98692 17.8631C6.54264 19.9163 9.40504 21.0456 12.3697 21.0456C14.312 21.0456 15.3343 20.327 15.3343 19.3004V19.1977C15.3343 18.0684 14.5165 17.5551 10.9385 16.7338C5.41812 15.5019 1.12452 13.8593 1.12452 8.52091V8.31559C1.22674 3.49049 5.00921 0 11.2452 0C15.641 0 19.1168 1.23194 21.9792 3.49049L18.4012 8.62357C16.0499 6.98099 13.392 6.05703 11.1429 6.05703C9.40504 6.05703 8.58721 6.77567 8.58721 7.69962V7.80228C8.58721 9.03422 9.50727 9.54753 13.0853 10.3688C19.0145 11.7034 22.797 13.654 22.797 18.4791C22.797 23.8175 18.6056 27 12.2674 27C7.56492 27 3.16909 25.5627 0 22.6882Z" fill="#2B2B2B"/>
<path d="M26.1704 0.410662H47.1273V6.57036H33.3264V10.5742H45.7983V16.3232H33.3264V20.4297H47.3318V26.5894H26.1704V0.410662Z" fill="#2B2B2B"/>
<path d="M50.9097 0.410662H60.9281C70.2309 0.410662 75.649 5.85173 75.649 13.346V13.4487C75.649 20.943 70.2309 26.5894 60.8258 26.5894H50.9097V0.410662ZM61.1325 20.1217C65.4261 20.1217 68.2885 17.7605 68.2885 13.5513V13.4487C68.2885 9.23956 65.4261 6.87834 61.1325 6.87834H58.1679V20.1217H61.1325Z" fill="#2B2B2B"/>
<path d="M86.4855 0.307978H93.4371L104.478 26.5893H96.7084L94.766 21.9696H84.8499L83.0097 26.5893H75.4448L86.4855 0.307978ZM92.8237 16.2205L89.9613 8.82889L86.9967 16.2205H92.8237Z" fill="#2B2B2B"/>
<path d="M107.033 0.410662H114.189V20.2243H126.764V26.5894H106.931V0.410662H107.033Z" fill="#2B2B2B"/>
<path d="M129.933 0.410662H137.498L143.733 10.4715L149.969 0.410662H157.534V26.4867H150.378V11.6008L143.733 21.8669H143.631L136.986 11.7034V26.5894H129.933V0.410662Z" fill="#2B2B2B"/>
<path d="M162.135 0.410662H183.092V6.57036H169.291V10.5742H181.763V16.3232H169.291V20.4297H183.296V26.5894H162.237V0.410662H162.135Z" fill="#2B2B2B"/>
<path d="M202.924 0.410662H211L193.11 26.4867H185.034L202.924 0.410662Z" fill="#E2C219"/>
<path d="M211 26.5894H202.924L185.034 0.410662H193.11L211 26.5894Z" fill="#2B2B2B"/>
</svg>
