<svg width="103" height="13" viewBox="0 0 103 13" fill="none" xmlns="http://www.w3.org/2000/svg">
<path d="M0 10.924L1.94622 8.60076C3.1938 9.58935 4.59109 10.1331 6.03828 10.1331C6.98643 10.1331 7.48547 9.78707 7.48547 9.29278V9.24335C7.48547 8.69962 7.08624 8.45247 5.33963 8.05703C2.64486 7.46388 0.548934 6.673 0.548934 4.10266V4.0038C0.598837 1.68061 2.44525 0 5.48934 0C7.63517 0 9.33188 0.593156 10.7292 1.68061L8.98256 4.15209C7.83479 3.36122 6.53731 2.91635 5.43944 2.91635C4.59108 2.91635 4.19186 3.26236 4.19186 3.70722V3.75665C4.19186 4.34981 4.64099 4.59696 6.3876 4.9924C9.28198 5.63498 11.1284 6.57414 11.1284 8.89734C11.1284 11.4677 9.08236 13 5.98837 13C3.69283 13 1.547 12.308 0 10.924Z" fill="#E2C219"/>
<path d="M12.7754 0.197754H23.0055V3.16353H16.2686V5.09129H22.3568V7.85935H16.2686V9.83654H23.1053V12.8023H12.7754V0.197754Z" fill="#E2C219"/>
<path d="M24.8516 0.197754H29.7421C34.2832 0.197754 36.9281 2.81753 36.9281 6.42589V6.47532C36.9281 10.0837 34.2832 12.8023 29.6922 12.8023H24.8516V0.197754ZM29.8419 9.68825C31.9378 9.68825 33.3351 8.55137 33.3351 6.52475V6.47532C33.3351 4.4487 31.9378 3.31182 29.8419 3.31182H28.3947V9.68825H29.8419Z" fill="#E2C219"/>
<path d="M42.2181 0.148193H45.6116L51.0011 12.8022H47.2085L46.2603 10.5779H41.4197L40.5214 12.8022H36.8286L42.2181 0.148193ZM45.3121 7.80979L43.9149 4.25085L42.4677 7.80979H45.3121Z" fill="#E2C219"/>
<path d="M52.2486 0.197754H55.7418V9.73768H61.8799V12.8023H52.1987V0.197754H52.2486Z" fill="#E2C219"/>
<path d="M63.4268 0.197754H67.1196L70.1637 5.04186L73.2078 0.197754H76.9006V12.7529H73.4074V5.58559L70.1637 10.5286H70.1138L66.8701 5.63502V12.8023H63.4268V0.197754Z" fill="#E2C219"/>
<path d="M79.1465 0.197754H89.3766V3.16353H82.6397V5.09129H88.7279V7.85935H82.6397V9.83654H89.4764V12.8023H79.1964V0.197754H79.1465Z" fill="#E2C219"/>
<path d="M99.0578 0.197754H103L94.2671 12.7529H90.3247L99.0578 0.197754Z" fill="white"/>
<path d="M103 12.8023H99.0578L90.3247 0.197754H94.2671L103 12.8023Z" fill="#E2C219"/>
</svg>
