<svg width="422" height="54" viewBox="0 0 422 54" fill="none" xmlns="http://www.w3.org/2000/svg">
<path d="M0 45.3764L7.97384 35.7262C13.0853 39.8327 18.8101 42.0913 24.7393 42.0913C28.624 42.0913 30.6686 40.654 30.6686 38.6008V38.3954C30.6686 36.1369 29.0329 35.1103 21.8769 33.4677C10.8362 31.0038 2.24903 27.7186 2.24903 17.0418V16.6312C2.45349 6.98099 10.0184 0 22.4903 0C31.282 0 38.2335 2.46388 43.9583 6.98099L36.8023 17.2471C32.0998 13.962 26.7839 12.1141 22.2859 12.1141C18.8101 12.1141 17.1744 13.5513 17.1744 15.3992V15.6046C17.1744 18.0684 19.0145 19.0951 26.1705 20.7376C38.0291 23.4068 45.594 27.308 45.594 36.9582C45.594 47.635 37.2112 54 24.5349 54C15.1298 54 6.33818 51.1255 0 45.3764Z" fill="#2B2B2B"/>
<path d="M52.3408 0.82135H94.2546V13.1407H66.6528V21.1483H91.5966V32.6464H66.6528V40.8594H94.6635V53.1788H52.3408V0.82135Z" fill="#2B2B2B"/>
<path d="M101.82 0.82135H121.857C140.462 0.82135 151.299 11.7035 151.299 26.6921V26.8974C151.299 41.886 140.462 53.1788 121.652 53.1788H101.82V0.82135ZM122.266 40.2434C130.853 40.2434 136.578 35.521 136.578 27.1027V26.8974C136.578 18.4791 130.853 13.7567 122.266 13.7567H116.336V40.2434H122.266Z" fill="#2B2B2B"/>
<path d="M172.971 0.615967H186.874L208.956 53.1787H193.417L189.532 43.9392H169.7L166.019 53.1787H150.89L172.971 0.615967ZM185.647 32.4411L179.923 17.6578L173.993 32.4411H185.647Z" fill="#2B2B2B"/>
<path d="M214.067 0.82135H228.379V40.4487H253.527V53.1788H213.862V0.82135H214.067Z" fill="#2B2B2B"/>
<path d="M259.865 0.82135H274.995L287.467 20.943L299.939 0.82135H315.069V52.9734H300.757V23.2016L287.467 43.7339H287.263L273.973 23.4069V53.1788H259.865V0.82135Z" fill="#2B2B2B"/>
<path d="M324.27 0.82135H366.183V13.1407H338.582V21.1483H363.525V32.6464H338.582V40.8594H366.592V53.1788H324.474V0.82135H324.27Z" fill="#2B2B2B"/>
<path d="M405.848 0.82135H422L386.22 52.9734H370.068L405.848 0.82135Z" fill="white"/>
<path d="M422 53.1788H405.848L370.068 0.82135H386.22L422 53.1788Z" fill="#2B2B2B"/>
</svg>
